<svg width="685" height="37" viewBox="0 0 685 37" fill="none" xmlns="http://www.w3.org/2000/svg">
<path d="M12.2393 0.5H952.953C957.586 0.5 961.758 1.60292 964.753 3.36016C967.761 5.12432 969.5 7.4888 969.5 10V35.5H0.5V10C0.5 7.3188 1.18455 4.97204 2.93536 3.28937C4.69015 1.60287 7.60238 0.5 12.2393 0.5Z" transform="translate(0.5 0.5)" stroke="#C4C4C4"/>
<path fill-rule="evenodd" clip-rule="evenodd" d="M37 0C34.239 0 32 2.239 32 5C32 7.762 34.239 10 37 10C39.761 10 42 7.762 42 5C42 2.239 39.761 0 37 0ZM21 0C18.239 0 16 2.239 16 5C16 7.762 18.239 10 21 10C23.761 10 26 7.762 26 5C26 2.239 23.761 0 21 0ZM5 0C2.238 0 0 2.239 0 5C0 7.762 2.238 10 5 10C7.762 10 10 7.762 10 5C10 2.239 7.762 0 5 0Z" transform="translate(13.5 14.5)" stroke="#C2C2BC"/>
</svg>
